<svg width="28" height="28" viewBox="0 0 15 17" fill="none" xmlns="http://www.w3.org/2000/svg">
<g clip-path="url(#clip0_2054_61)">
<path d="M14.4601 13.1402C14.207 13.7206 13.9074 14.2549 13.5603 14.7461C13.0872 15.4158 12.6999 15.8793 12.4013 16.1367C11.9385 16.5592 11.4427 16.7756 10.9117 16.7879C10.5305 16.7879 10.0708 16.6802 9.53575 16.4618C8.9989 16.2444 8.50553 16.1367 8.05442 16.1367C7.5813 16.1367 7.07389 16.2444 6.53115 16.4618C5.98758 16.6802 5.54969 16.794 5.21489 16.8053C4.70572 16.8269 4.1982 16.6043 3.69162 16.1367C3.36828 15.8567 2.96386 15.3768 2.47938 14.6969C1.95957 13.9708 1.53222 13.1289 1.19742 12.169C0.838862 11.1322 0.659119 10.1283 0.659119 9.15631C0.659119 8.04292 0.901462 7.08264 1.38687 6.27793C1.76836 5.63156 2.27588 5.12168 2.91107 4.74737C3.54627 4.37306 4.2326 4.18232 4.97172 4.17012C5.37614 4.17012 5.90649 4.2943 6.56555 4.53837C7.22274 4.78326 7.64473 4.90745 7.82974 4.90745C7.96806 4.90745 8.43684 4.76224 9.23153 4.47274C9.98304 4.20427 10.6173 4.0931 11.1369 4.13689C12.5449 4.24969 13.6027 4.8007 14.3062 5.79338C13.0469 6.55082 12.424 7.6117 12.4364 8.97264C12.4478 10.0327 12.8352 10.9148 13.5965 11.6153C13.9415 11.9403 14.3268 12.1916 14.7555 12.37C14.6626 12.6377 14.5644 12.8941 14.4601 13.1402ZM11.2309 0.525483C11.2309 1.35635 10.9251 2.13214 10.3157 2.85019C9.58017 3.70382 8.69055 4.19709 7.72582 4.11925C7.71353 4.01957 7.7064 3.91466 7.7064 3.80442C7.7064 3.00679 8.05618 2.15316 8.67732 1.4552C8.98743 1.10181 9.38183 0.807978 9.86012 0.573578C10.3374 0.342676 10.7888 0.214982 11.2134 0.193115C11.2258 0.30419 11.2309 0.415271 11.2309 0.525472V0.525483Z" fill="white"/>
</g>
<defs>
<clipPath id="clip0_2054_61">
<rect width="14.0964" height="16.6136" fill="white" transform="translate(0.659119 0.193115)"/>
</clipPath>
</defs>
</svg>
