<svg width="28" height="28" viewBox="0 0 12 12" fill="none" xmlns="http://www.w3.org/2000/svg">
<g clip-path="url(#clip0_2054_110)">
<path d="M12 6.13306C12 5.64115 11.9591 5.28217 11.8707 4.90991H6.12244V7.13019H9.49656C9.42856 7.68196 9.06121 8.51292 8.24487 9.07129L8.23343 9.14562L10.0509 10.5215L10.1769 10.5338C11.3333 9.49011 12 7.9545 12 6.13306Z" fill="#4285F4"/>
<path d="M6.12248 11.9829C7.77552 11.9829 9.16326 11.4511 10.1769 10.5337L8.24491 9.07124C7.72792 9.42356 7.03402 9.66952 6.12248 9.66952C4.50344 9.66952 3.1293 8.62588 2.63946 7.18335L2.56766 7.18931L0.677791 8.61855L0.653076 8.68569C1.65987 10.6401 3.7279 11.9829 6.12248 11.9829Z" fill="#34A853"/>
<path d="M2.63943 7.1832C2.51018 6.81094 2.43538 6.41205 2.43538 5.99992C2.43538 5.58774 2.51018 5.1889 2.63263 4.81664L2.62921 4.73736L0.715654 3.28516L0.653046 3.31426C0.238098 4.12528 0 5.03602 0 5.99992C0 6.96382 0.238098 7.87452 0.653046 8.68554L2.63943 7.1832Z" fill="#FBBC05"/>
<path d="M6.12248 2.33045C7.27212 2.33045 8.04762 2.81572 8.48981 3.22125L10.2177 1.57263C9.1565 0.60873 7.77552 0.0170898 6.12248 0.0170898C3.7279 0.0170898 1.65987 1.3599 0.653076 3.31428L2.63266 4.81667C3.1293 3.37414 4.50344 2.33045 6.12248 2.33045Z" fill="#EB4335"/>
</g>
<defs>
<clipPath id="clip0_2054_110">
<rect width="12" height="12" fill="white"/>
</clipPath>
</defs>
</svg>
