<svg width="18" height="18" viewBox="0 0 12 11" fill="none" xmlns="http://www.w3.org/2000/svg">
<path d="M10.8 0.5H1.2C0.54 0.5 0.00599999 1.0625 0.00599999 1.75L0 9.25C0 9.9375 0.54 10.5 1.2 10.5H10.8C11.46 10.5 12 9.9375 12 9.25V1.75C12 1.0625 11.46 0.5 10.8 0.5ZM10.56 3.15625L6.318 5.91875C6.126 6.04375 5.874 6.04375 5.682 5.91875L1.44 3.15625C1.37984 3.12107 1.32715 3.07354 1.28513 3.01653C1.24312 2.95953 1.21264 2.89424 1.19555 2.82461C1.17845 2.75498 1.1751 2.68246 1.18569 2.61144C1.19629 2.54042 1.2206 2.47238 1.25717 2.41144C1.29374 2.35049 1.34179 2.29791 1.39844 2.25687C1.45508 2.21583 1.51912 2.18719 1.5867 2.17269C1.65427 2.15818 1.72397 2.1581 1.79157 2.17247C1.85918 2.18683 1.92328 2.21533 1.98 2.25625L6 4.875L10.02 2.25625C10.0767 2.21533 10.1408 2.18683 10.2084 2.17247C10.276 2.1581 10.3457 2.15818 10.4133 2.17269C10.4809 2.18719 10.5449 2.21583 10.6016 2.25687C10.6582 2.29791 10.7063 2.35049 10.7428 2.41144C10.7794 2.47238 10.8037 2.54042 10.8143 2.61144C10.8249 2.68246 10.8215 2.75498 10.8045 2.82461C10.7874 2.89424 10.7569 2.95953 10.7149 3.01653C10.6728 3.07354 10.6202 3.12107 10.56 3.15625Z" fill="#6B7280"/>
</svg>
